<?xml version="1.0" encoding="utf-8"?>
<!-- Generator: Adobe Illustrator 17.0.2, SVG Export Plug-In . SVG Version: 6.00 Build 0)  -->
<!DOCTYPE svg PUBLIC "-//W3C//DTD SVG 1.1//EN" "http://www.w3.org/Graphics/SVG/1.1/DTD/svg11.dtd">
<svg version="1.1" id="Layer_1" xmlns="http://www.w3.org/2000/svg" xmlns:xlink="http://www.w3.org/1999/xlink" x="0px" y="0px"
	 width="305.677px" height="61.389px" viewBox="0 0 305.677 61.389" enable-background="new 0 0 305.677 61.389"
	 xml:space="preserve">
<rect fill="#D5C3A0" width="305.677" height="61.389"/>
<g>
	<polygon fill="#FFFFFF" points="14.494,9.271 14.494,30.435 17.771,30.435 17.771,9.271 25.145,9.271 25.145,6.679 7.121,6.679 
		7.121,9.271 	"/>
	<polygon fill="#FFFFFF" points="22.689,30.331 26.103,30.331 28.561,25.084 40.576,25.084 42.625,30.331 46.448,30.331 
		34.569,5.767 	"/>
	<polygon fill="#D5C3A0" points="34.569,12.44 29.38,22.403 39.757,22.403 	"/>
	<polygon fill="#FFFFFF" points="49.313,9.408 58.461,9.408 55.594,16.191 51.55,16.191 51.55,19.922 53.887,19.922 49.313,30.331 
		64.332,30.331 64.332,27.684 53.682,27.684 56.959,19.922 60.919,19.922 61.192,16.191 58.734,16.191 63.376,6.679 49.313,6.679 	
		"/>
	<ellipse fill="#FFFFFF" cx="79.215" cy="18.376" rx="12.494" ry="12.059"/>
	<ellipse fill="#D5C3A0" cx="79.215" cy="18.614" rx="9.285" ry="9.07"/>
	<g>
		<g>
			<path fill="#E8DECE" d="M266.908,140.193c0,1.037-0.796,1.87-1.815,1.87c-1.025,0-1.834-0.832-1.834-1.87
				c0-1.025,0.808-1.858,1.834-1.858C266.112,138.335,266.908,139.167,266.908,140.193z M263.561,140.211
				c0,0.899,0.663,1.604,1.532,1.604c0.85,0,1.514-0.706,1.514-1.622c0-0.899-0.663-1.61-1.514-1.61
				C264.224,138.582,263.561,139.294,263.561,140.211z M265.829,139.505c-0.079-0.042-0.302-0.139-0.585-0.139
				c-0.567,0-0.845,0.362-0.845,0.844c0,0.47,0.296,0.851,0.851,0.851c0.241,0,0.47-0.066,0.609-0.157l0.073,0.229
				c-0.211,0.139-0.489,0.187-0.742,0.187c-0.7,0-1.104-0.483-1.104-1.092c0-0.688,0.543-1.122,1.152-1.122
				c0.314,0,0.585,0.09,0.663,0.163L265.829,139.505z"/>
		</g>
	</g>
</g>
</svg>
